<svg width="20" height="21" viewBox="0 0 20 21" fill="none" xmlns="http://www.w3.org/2000/svg">
<path d="M17.496 12.3082L19.462 15.7142C19.5429 15.8544 19.5886 16.0122 19.5951 16.174C19.6017 16.3357 19.5689 16.4967 19.4995 16.643C19.4302 16.7893 19.3265 16.9166 19.1971 17.014C19.0678 17.1114 18.9168 17.176 18.757 17.2022L18.644 17.2132L18.532 17.2122L15.599 17.0222L14.296 19.6582C14.2253 19.8009 14.1215 19.9247 13.9933 20.0193C13.8651 20.1138 13.7161 20.1764 13.5589 20.2019C13.4016 20.2273 13.2406 20.2148 13.0891 20.1655C12.9376 20.1161 12.8001 20.0314 12.688 19.9182L12.606 19.8242L12.534 19.7142L10.566 16.3072C11.9514 16.2206 13.2979 15.8145 14.5002 15.1207C15.7024 14.427 16.7278 13.4643 17.496 12.3082Z" fill="white"/>
<path d="M9.43 16.3072L7.464 19.7152C7.38433 19.8533 7.27285 19.9703 7.13881 20.0566C7.00478 20.1429 6.85208 20.1959 6.69342 20.2113C6.53476 20.2266 6.37472 20.2039 6.22663 20.1449C6.07853 20.0859 5.94667 19.9924 5.842 19.8722L5.766 19.7722L5.702 19.6582L4.398 17.0232L1.467 17.2132C1.30555 17.2236 1.14399 17.1947 0.996149 17.129C0.848312 17.0632 0.718607 16.9627 0.618141 16.8359C0.517675 16.7091 0.449443 16.5598 0.419289 16.4008C0.389135 16.2419 0.397957 16.078 0.445 15.9232L0.485 15.8162L0.535 15.7162L2.503 12.3072C3.27067 13.4633 4.29547 14.4261 5.4972 15.1202C6.69892 15.8143 8.04497 16.2199 9.43 16.3072Z" fill="white"/>
<path d="M10 0.325195L10.24 0.329195C12.0539 0.391423 13.7727 1.15576 15.0339 2.46097C16.2951 3.76618 17 5.51022 17 7.3252L16.997 7.5182L16.99 7.7102L16.972 7.9552L16.946 8.1972L16.922 8.3752C16.8562 8.80684 16.7501 9.23137 16.605 9.6432L16.489 9.9512L16.336 10.2992C15.7699 11.5052 14.8714 12.5246 13.7461 13.2377C12.6208 13.9509 11.3153 14.3281 9.98308 14.3252C8.65083 14.3223 7.34708 13.9392 6.22492 13.2211C5.10276 12.503 4.2088 11.4797 3.648 10.2712L3.518 9.9742L3.466 9.8412L3.386 9.6242L3.291 9.3302C3.25707 9.21634 3.22606 9.10164 3.198 8.9862L3.138 8.7152L3.089 8.4442L3.069 8.30519L3.03 7.98219L3.006 7.6172L3 7.3252C2.99997 5.51022 3.70489 3.76618 4.96607 2.46097C6.22726 1.15576 7.94609 0.391423 9.76 0.329195L10 0.325195Z" fill="white"/>
<path d="M17.496 12.3082L19.462 15.7142C19.5429 15.8544 19.5886 16.0122 19.5951 16.174C19.6017 16.3357 19.5689 16.4967 19.4995 16.643C19.4302 16.7893 19.3265 16.9166 19.1971 17.014C19.0678 17.1114 18.9168 17.176 18.757 17.2022L18.644 17.2132L18.532 17.2122L15.599 17.0222L14.296 19.6582C14.2253 19.8009 14.1215 19.9247 13.9933 20.0193C13.8651 20.1138 13.7161 20.1764 13.5589 20.2019C13.4016 20.2273 13.2406 20.2148 13.0891 20.1655C12.9376 20.1161 12.8001 20.0314 12.688 19.9182L12.606 19.8242L12.534 19.7142L10.566 16.3072C11.9514 16.2206 13.2979 15.8145 14.5002 15.1207C15.7024 14.427 16.7278 13.4643 17.496 12.3082Z" stroke="white"/>
<path d="M9.43 16.3072L7.464 19.7152C7.38433 19.8533 7.27285 19.9703 7.13881 20.0566C7.00478 20.1429 6.85208 20.1959 6.69342 20.2113C6.53476 20.2266 6.37472 20.2039 6.22663 20.1449C6.07853 20.0859 5.94667 19.9924 5.842 19.8722L5.766 19.7722L5.702 19.6582L4.398 17.0232L1.467 17.2132C1.30555 17.2236 1.14399 17.1947 0.996149 17.129C0.848312 17.0632 0.718607 16.9627 0.618141 16.8359C0.517675 16.7091 0.449443 16.5598 0.419289 16.4008C0.389135 16.2419 0.397957 16.078 0.445 15.9232L0.485 15.8162L0.535 15.7162L2.503 12.3072C3.27067 13.4633 4.29547 14.4261 5.4972 15.1202C6.69892 15.8143 8.04497 16.2199 9.43 16.3072Z" stroke="white"/>
<path d="M10 0.325195L10.24 0.329195C12.0539 0.391423 13.7727 1.15576 15.0339 2.46097C16.2951 3.76618 17 5.51022 17 7.3252L16.997 7.5182L16.99 7.7102L16.972 7.9552L16.946 8.1972L16.922 8.3752C16.8562 8.80684 16.7501 9.23137 16.605 9.6432L16.489 9.9512L16.336 10.2992C15.7699 11.5052 14.8714 12.5246 13.7461 13.2377C12.6208 13.9509 11.3153 14.3281 9.98308 14.3252C8.65083 14.3223 7.34708 13.9392 6.22492 13.2211C5.10276 12.503 4.2088 11.4797 3.648 10.2712L3.518 9.9742L3.466 9.8412L3.386 9.6242L3.291 9.3302C3.25707 9.21634 3.22606 9.10164 3.198 8.9862L3.138 8.7152L3.089 8.4442L3.069 8.30519L3.03 7.98219L3.006 7.6172L3 7.3252C2.99997 5.51022 3.70489 3.76618 4.96607 2.46097C6.22726 1.15576 7.94609 0.391423 9.76 0.329195L10 0.325195Z" stroke="white"/>
</svg>
