<svg width="18" height="18" viewBox="0 0 18 18" fill="none" xmlns="http://www.w3.org/2000/svg">
<path fill-rule="evenodd" clip-rule="evenodd" d="M18 9C18 13.9706 13.9706 18 9 18C4.02944 18 0 13.9706 0 9C0 4.02944 4.02944 0 9 0C13.9706 0 18 4.02944 18 9ZM8.91475 5.74078C9.06487 5.70252 9.22315 5.71168 9.36785 5.767L13.8679 7.48759C14.2547 7.63552 14.4485 8.06909 14.3005 8.45598C14.1526 8.84288 13.719 9.0366 13.3321 8.88867L9.71204 7.50451L9.39991 9.73225H11.35C11.7086 9.73225 12.017 9.98603 12.086 10.3379L12.6485 13.2055C12.7282 13.612 12.4633 14.0061 12.0569 14.0859C11.6504 14.1656 11.2563 13.9007 11.1765 13.4943L10.7328 11.2322H8.96638L7.49639 13.7303C7.36162 13.9593 7.11573 14.0999 6.85 14.0999H4.6C4.18579 14.0999 3.85 13.7641 3.85 13.3499C3.85 12.9357 4.18579 12.5999 4.6 12.5999H6.42112L7.81545 10.2304L8.20217 7.47038L4.78525 8.34136C4.38387 8.44367 3.97555 8.20123 3.87324 7.79985C3.77093 7.39847 4.01337 6.99015 4.41475 6.88784L8.91475 5.74078ZM8.17191 5.09054C7.92577 4.8444 7.78749 4.51056 7.78749 4.16246C7.78749 3.81437 7.92577 3.48053 8.17191 3.23439C8.41806 2.98824 8.75189 2.84996 9.09999 2.84996C9.44809 2.84996 9.78193 2.98824 10.0281 3.23439C10.2742 3.48053 10.4125 3.81437 10.4125 4.16246C10.4125 4.51056 10.2742 4.8444 10.0281 5.09054C9.78193 5.33668 9.44809 5.47496 9.09999 5.47496C8.75189 5.47496 8.41806 5.33668 8.17191 5.09054Z" fill="white"/>
</svg>
