<svg width="25" height="24" viewBox="0 0 25 24" fill="none" xmlns="http://www.w3.org/2000/svg">
<path fill-rule="evenodd" clip-rule="evenodd" d="M6.5 17C6.5 18.8856 6.5 19.8284 7.08579 20.4142C7.67157 21 8.61438 21 10.5 21H14.5C16.3856 21 17.3284 21 17.9142 20.4142C18.5 19.8284 18.5 18.8856 18.5 17V7C18.5 5.11438 18.5 4.17157 17.9142 3.58579C17.3284 3 16.3856 3 14.5 3H10.5C8.61438 3 7.67157 3 7.08579 3.58579C6.5 4.17157 6.5 5.11438 6.5 7V17ZM10 19C10 19.2761 10.2239 19.5 10.5 19.5H14.5C14.7761 19.5 15 19.2761 15 19C15 18.7239 14.7761 18.5 14.5 18.5H10.5C10.2239 18.5 10 18.7239 10 19ZM12.5 5C13.0523 5 13.5 5.44772 13.5 6C13.5 6.55228 13.0523 7 12.5 7C11.9477 7 11.5 6.55228 11.5 6C11.5 5.44772 11.9477 5 12.5 5Z" fill="white"/>
</svg>
