<svg width="14" height="14" viewBox="0 0 14 14" fill="none" xmlns="http://www.w3.org/2000/svg">
<path d="M5.58933 3.01582C6.12439 1.68192 6.39192 1.01496 6.82657 0.922526C6.94086 0.898221 7.05898 0.898221 7.17327 0.922526C7.60792 1.01496 7.87545 1.68192 8.41051 3.01582C8.71479 3.77439 8.86693 4.15367 9.1516 4.41164C9.23145 4.484 9.31813 4.54844 9.41042 4.60407C9.73945 4.80238 10.1502 4.83917 10.9717 4.91274C12.3623 5.03728 13.0576 5.09955 13.27 5.49601C13.3139 5.57811 13.3438 5.66701 13.3584 5.75901C13.4288 6.2032 12.9177 6.66825 11.8953 7.59835L11.6114 7.85663C11.1335 8.29147 10.8945 8.50889 10.7563 8.78023C10.6734 8.94299 10.6178 9.11828 10.5917 9.29908C10.5483 9.60049 10.6183 9.9159 10.7582 10.5467L10.8082 10.7721C11.0592 11.9034 11.1847 12.469 11.0281 12.7471C10.8873 12.9968 10.6281 13.1567 10.3418 13.1704C10.023 13.1856 9.57389 12.8196 8.67557 12.0876C8.08373 11.6053 7.78781 11.3642 7.4593 11.27C7.1591 11.1839 6.84074 11.1839 6.54054 11.27C6.21203 11.3642 5.91611 11.6053 5.32427 12.0876C4.42595 12.8196 3.9768 13.1856 3.65803 13.1704C3.3717 13.1567 3.11249 12.9968 2.97177 12.7471C2.81511 12.469 2.94061 11.9034 3.1916 10.7721L3.24161 10.5467C3.38157 9.9159 3.45155 9.60049 3.40812 9.29908C3.38207 9.11828 3.32648 8.94299 3.24356 8.78023C3.10533 8.50889 2.86636 8.29147 2.3884 7.85663L2.10451 7.59835C1.08218 6.66825 0.571022 6.2032 0.641416 5.75901C0.655995 5.66701 0.685895 5.57811 0.729871 5.49601C0.942204 5.09955 1.63752 5.03728 3.02816 4.91274C3.84964 4.83917 4.26039 4.80238 4.58942 4.60407C4.68171 4.54844 4.76839 4.484 4.84824 4.41164C5.13291 4.15367 5.28505 3.77439 5.58933 3.01582Z" fill="#404040" stroke="#404040"/>
</svg>
